<svg width="32" height="32" viewBox="0 0 32 32" xmlns="http://www.w3.org/2000/svg">
  <defs>
    <style>
      .favicon-bg {
        fill: #2F2F2F;
      }
      .favicon-letter {
        fill: #FFFFFF;
      }
      @media (prefers-color-scheme: dark) {
        .favicon-bg {
          fill: #FFFFFF;
        }
        .favicon-letter {
          fill: #2F2F2F;
        }
      }
    </style>
  </defs>

  <rect width="32" height="32" rx="4" class="favicon-bg"/>

  <!-- Simplified J for small size -->
  <path class="favicon-letter" d="
    M 8,8
    L 10,8
    L 10,20
    Q 10,23 8.5,24.5
    Q 7,26 4,26
    L 3,26
    L 3,24
    L 4,24
    Q 6,24 7,23
    Q 8,22 8,20
    Z
  " />

  <!-- Simplified A for small size -->
  <path class="favicon-letter" d="
    M 20,26
    L 18,26
    L 19,20
    L 15,20
    L 16,26
    L 14,26
    L 18,8
    L 20,8
    Z
    M 15.5,18
    L 18.5,18
    L 17,12
    Z
  " />

  <path class="favicon-letter" d="
    M 24,26
    L 22,26
    L 22,18
    L 26,8
    L 28,8
    L 24,18
    Z
  " />

  <path class="favicon-letter" d="
    M 26,15
    L 27,8
    L 29,8
    L 29,26
    L 27,26
    L 27,15
    Z
  " />
</svg>
